<svg width="31" height="32" viewBox="0 0 31 32" fill="none" xmlns="http://www.w3.org/2000/svg">
<path d="M22.453 2.69322C21.3133 2.69322 20.2631 3.31177 19.7098 4.30899L17.7908 7.76796C17.2883 8.67378 17.2647 9.76937 17.7277 10.6959L19.312 13.8653L19.2555 14.0388L19.1391 14.3623C18.8405 15.1512 18.4249 15.9414 17.8785 16.673C17.6377 16.9953 17.376 17.2997 17.0924 17.5834C16.8123 17.8636 16.5124 18.1224 16.1951 18.3605C15.4637 18.9091 14.6739 19.3253 13.8855 19.6233C13.7316 19.6815 13.5908 19.7306 13.4655 19.7715L13.3897 19.7948L10.2193 18.2102C9.37681 17.7887 8.3947 17.7702 7.54274 18.1488L7.29132 18.2743L3.82493 20.2027C2.8292 20.7566 2.21178 21.807 2.21178 22.9469V26.9291C2.21178 30.03 5.14531 32.2534 8.08486 31.2608C13.9603 29.2771 19.1653 26.6094 22.6389 23.1335C26.1126 19.6577 28.7785 14.4494 30.761 8.57014C31.7529 5.62859 29.5309 2.69322 26.4321 2.69322H22.453ZM22.453 5.83286H26.4321C27.4244 5.83286 28.0804 6.6995 27.7881 7.56637C25.9471 13.026 23.4737 17.8582 20.4203 20.9135C17.367 23.9688 12.5378 26.4438 7.08169 28.286C6.21547 28.5785 5.3494 27.9221 5.3494 26.9291V22.9469L8.81594 21.0183L12.5128 22.8679C12.821 23.0222 13.1714 23.0705 13.5099 23.0056C14.7044 22.7763 16.3875 22.1401 18.0772 20.8725C18.5112 20.5469 18.9236 20.1911 19.311 19.8035C19.7031 19.4112 20.0628 18.993 20.3917 18.5526C21.6518 16.8655 22.2878 15.1854 22.5195 13.9934C22.5856 13.6536 22.5375 13.3014 22.3828 12.9917L20.5341 9.2918L22.453 5.83286ZM11.7661 0.5C10.9615 0.5 10.2984 1.10601 10.2078 1.88675L10.1973 2.06982L10.1993 8.58614L2.65617 1.3307C2.03161 0.72978 1.03849 0.749266 0.437962 1.37422C-0.116373 1.9511 -0.142424 2.84223 0.348074 3.44855L0.481455 3.59385L7.87067 10.7028L1.56881 10.7038C0.764269 10.7038 0.101177 11.3098 0.0105553 12.0906L0 12.2737C0 13.0787 0.605623 13.7422 1.38585 13.8329L1.56881 13.8435H11.7661L11.8277 13.8423C11.8599 13.841 11.8922 13.8387 11.9243 13.8355L11.7661 13.8435C11.8548 13.8435 11.9418 13.8361 12.0266 13.8219C12.0458 13.8186 12.0662 13.8147 12.0866 13.8105C12.1338 13.8008 12.1788 13.7893 12.2231 13.7758C12.2358 13.7718 12.2497 13.7674 12.2635 13.7628C12.307 13.7483 12.349 13.7322 12.3901 13.7144C12.4065 13.7073 12.4231 13.6997 12.4396 13.6919C12.4728 13.676 12.5052 13.6591 12.537 13.6412C12.6485 13.5784 12.7546 13.5001 12.8516 13.407C12.8627 13.3963 12.8739 13.3853 12.8848 13.3742C12.8884 13.3705 12.8927 13.3661 12.8969 13.3617L12.9308 13.3253C12.96 13.293 12.9878 13.2595 13.0142 13.2248L12.8969 13.3617C12.9581 13.298 13.0129 13.2304 13.0613 13.1599C13.0837 13.1269 13.1051 13.093 13.1252 13.0583C13.1376 13.037 13.1495 13.0152 13.1608 12.9932C13.2455 12.829 13.3021 12.6481 13.3243 12.4567C13.3277 12.4267 13.3302 12.3983 13.332 12.3698L13.3349 12.2737V2.06982C13.3349 1.20283 12.6325 0.5 11.7661 0.5Z" fill="#FFCA0F"/>
</svg>
