<svg width="91" height="60" viewBox="0 0 91 60" fill="none" xmlns="http://www.w3.org/2000/svg">
<path opacity="0.8" fill-rule="evenodd" clip-rule="evenodd" d="M90.0645 3.74976C90.0645 1.67869 88.3868 -0.000244141 86.3173 -0.000244141H31.9835C29.914 -0.000244141 28.2363 1.67869 28.2363 3.74976V13.1248H15.9242C14.7501 13.1248 13.6438 13.6755 12.9356 14.6127L0.89109 30.5502C0.398911 31.2015 0.132584 31.9957 0.132584 32.8123V48.7498C0.132584 50.8208 1.81025 52.4998 3.87975 52.4998H13.8873C15.4306 56.8692 19.5946 59.9998 24.4891 59.9998C29.3837 59.9998 33.5477 56.8692 35.0909 52.4998H56.9797C58.5229 56.8692 62.6869 59.9998 67.5815 59.9998C72.4761 59.9998 76.6401 56.8692 78.1833 52.4998H86.3173C88.3868 52.4998 90.0645 50.8208 90.0645 48.7498V3.74976ZM78.1833 44.9998C76.6401 40.6303 72.4761 37.4998 67.5815 37.4998C62.6869 37.4998 58.5229 40.6303 56.9797 44.9998H35.7306V7.49976H82.5701V44.9998H78.1833ZM28.2363 38.1399V20.6248H17.7884L7.62691 34.0706V44.9998H13.8873C15.4306 40.6303 19.5946 37.4998 24.4891 37.4998C25.803 37.4998 27.0643 37.7253 28.2363 38.1399ZM67.5815 44.9998C69.651 44.9998 71.3286 46.6787 71.3286 48.7498C71.3286 50.8208 69.651 52.4998 67.5815 52.4998C65.5121 52.4998 63.8343 50.8208 63.8343 48.7498C63.8343 46.6788 65.5121 44.9998 67.5815 44.9998ZM24.4891 44.9998C26.5586 44.9998 28.2363 46.6788 28.2363 48.7498C28.2363 50.8208 26.5586 52.4998 24.4891 52.4998C22.4197 52.4998 20.742 50.8208 20.742 48.7498C20.742 46.6788 22.4197 44.9998 24.4891 44.9998Z" fill="#F9B247"/>
</svg>
