<svg width="61" height="60" viewBox="0 0 61 60" fill="none" xmlns="http://www.w3.org/2000/svg">
<path opacity="0.8" fill-rule="evenodd" clip-rule="evenodd" d="M0.490479 2.99976C0.490479 1.3429 1.83261 -0.000244141 3.48821 -0.000244141H24.4723C26.1279 -0.000244141 27.47 1.3429 27.47 2.99976V19.4998C27.47 21.1566 26.1279 22.4998 24.4723 22.4998H3.48821C1.83261 22.4998 0.490479 21.1566 0.490479 19.4998V2.99976ZM6.48594 5.99976V16.4998H21.4746V5.99976H6.48594ZM33.4655 2.99976C33.4655 1.3429 34.8076 -0.000244141 36.4632 -0.000244141H57.4473C59.1029 -0.000244141 60.4451 1.3429 60.4451 2.99976V28.4998C60.4451 30.1566 59.1029 31.4998 57.4473 31.4998H36.4632C34.8076 31.4998 33.4655 30.1566 33.4655 28.4998V2.99976ZM39.461 5.99976V25.4998H54.4496V5.99976H39.461ZM0.490479 31.4998C0.490479 29.8429 1.83261 28.4998 3.48821 28.4998H24.4723C26.1279 28.4998 27.47 29.8429 27.47 31.4998V56.9998C27.47 58.6566 26.1279 59.9998 24.4723 59.9998H3.48821C1.83261 59.9998 0.490479 58.6566 0.490479 56.9998V31.4998ZM6.48594 34.4998V53.9998H21.4746V34.4998H6.48594ZM33.4655 40.4998C33.4655 38.8429 34.8076 37.4998 36.4632 37.4998H57.4473C59.1029 37.4998 60.4451 38.8429 60.4451 40.4998V56.9998C60.4451 58.6566 59.1029 59.9998 57.4473 59.9998H36.4632C34.8076 59.9998 33.4655 58.6566 33.4655 56.9998V40.4998ZM39.461 43.4998V53.9998H54.4496V43.4998H39.461Z" fill="#F9B247"/>
</svg>
