<svg width="70" height="68" viewBox="0 0 70 68" fill="none" xmlns="http://www.w3.org/2000/svg">
<g filter="url(#filter0_d)">
<path d="M8 4H62C64.2091 4 66 5.79086 66 8V60H32C18.7452 60 8 49.2548 8 36V4Z" fill="#503414" fill-opacity="0.7"/>
<path d="M40.9955 36.9336C40.6453 36.9336 40.295 37.2314 40.295 38.229C40.295 39.2265 40.6453 39.5243 40.9955 39.5243C41.3457 39.5243 41.6959 39.2265 41.6959 38.229C41.6959 37.2313 41.3457 36.9336 40.9955 36.9336Z" fill="url(#paint0_linear)"/>
<path d="M32.8287 32.0202C32.4784 32.0202 32.1282 32.318 32.1282 33.3156C32.1282 34.3131 32.4784 34.6109 32.8287 34.6109C33.1789 34.6109 33.5291 34.3131 33.5291 33.3156C33.5291 32.318 33.1789 32.0202 32.8287 32.0202Z" fill="url(#paint1_linear)"/>
<path d="M49.0301 25.0359C45.5212 21.4113 43.436 18.2206 42.3044 16.1822C41.0789 13.9742 40.6773 12.6051 40.6742 12.5942L40.3094 11.3043L39.0066 11.8478C38.8543 11.9113 35.2547 13.4466 33.2377 17.2193C32.2252 19.1132 32.0227 21.2219 32.0312 22.6573C32.0362 23.4926 31.4033 24.2179 30.5266 24.3819C29.9119 24.4968 29.2796 24.318 28.8359 23.9031L26.4091 21.6334L25.5743 22.71C25.4876 22.8218 23.4474 25.4533 23.076 25.9791C21.2623 28.5469 20.3165 31.5381 20.341 34.6294C20.3739 38.758 22.1099 42.6261 25.2292 45.5211C28.3484 48.416 32.4975 50.0102 36.9121 50.0102C46.0496 50.0101 53.4834 43.0576 53.4834 34.5117C53.4835 31.4131 51.8603 27.9594 49.0301 25.0359ZM40.9955 41.1323C39.308 41.1323 38.0344 40.0901 38.0344 38.229C38.0344 36.3828 39.3079 35.3256 40.9955 35.3256C42.683 35.3256 43.9566 36.3827 43.9566 38.229C43.9566 40.0901 42.6829 41.1323 40.9955 41.1323ZM39.3717 30.5611H42.0621L34.4524 40.9834H31.7621L39.3717 30.5611ZM29.8677 33.3156C29.8677 31.4694 31.1412 30.4123 32.8287 30.4123C34.5163 30.4123 35.7898 31.4694 35.7898 33.3156C35.7898 35.1767 34.5163 36.219 32.8287 36.219C31.1412 36.219 29.8677 35.1767 29.8677 33.3156Z" fill="url(#paint2_linear)"/>
</g>
<defs>
<filter id="filter0_d" x="0" y="0" width="70" height="68" filterUnits="userSpaceOnUse" color-interpolation-filters="sRGB">
<feFlood flood-opacity="0" result="BackgroundImageFix"/>
<feColorMatrix in="SourceAlpha" type="matrix" values="0 0 0 0 0 0 0 0 0 0 0 0 0 0 0 0 0 0 127 0"/>
<feOffset dx="-2" dy="2"/>
<feGaussianBlur stdDeviation="3"/>
<feColorMatrix type="matrix" values="0 0 0 0 0.391667 0 0 0 0 0.251871 0 0 0 0 0.0877624 0 0 0 0.23 0"/>
<feBlend mode="normal" in2="BackgroundImageFix" result="effect1_dropShadow"/>
<feBlend mode="normal" in="SourceGraphic" in2="effect1_dropShadow" result="shape"/>
</filter>
<linearGradient id="paint0_linear" x1="43.9175" y1="-27.4549" x2="-22.8812" y2="126.993" gradientUnits="userSpaceOnUse">
<stop offset="0.000928705" stop-color="#FF6868"/>
<stop offset="0.411741" stop-color="#FFDD2C"/>
</linearGradient>
<linearGradient id="paint1_linear" x1="43.9175" y1="-27.4549" x2="-22.8812" y2="126.993" gradientUnits="userSpaceOnUse">
<stop offset="0.000928705" stop-color="#FF6868"/>
<stop offset="0.411741" stop-color="#FFDD2C"/>
</linearGradient>
<linearGradient id="paint2_linear" x1="43.9175" y1="-27.4549" x2="-22.8812" y2="126.993" gradientUnits="userSpaceOnUse">
<stop offset="0.000928705" stop-color="#FF6868"/>
<stop offset="0.411741" stop-color="#FFDD2C"/>
</linearGradient>
</defs>
</svg>
