<svg width="46" height="46" viewBox="0 0 46 46" fill="none" xmlns="http://www.w3.org/2000/svg">
<rect width="46" height="46" fill="#4A4A4A"/>
<path fill-rule="evenodd" clip-rule="evenodd" d="M14.55 12.6C13.473 12.6 12.6 13.473 12.6 14.55C12.6 15.627 13.473 16.5 14.55 16.5C15.627 16.5 16.5 15.627 16.5 14.55C16.5 13.473 15.627 12.6 14.55 12.6ZM10 14.55C10 12.0371 12.0371 10 14.55 10C17.0629 10 19.1 12.0371 19.1 14.55C19.1 17.0629 17.0629 19.1 14.55 19.1C12.0371 19.1 10 17.0629 10 14.55ZM35.6192 10.3808C36.1269 10.8884 36.1269 11.7116 35.6192 12.2192L12.2192 35.6192C11.7116 36.1269 10.8884 36.1269 10.3808 35.6192C9.87308 35.1116 9.87308 34.2884 10.3808 33.7808L33.7808 10.3808C34.2884 9.87308 35.1116 9.87308 35.6192 10.3808ZM31.45 29.5C30.373 29.5 29.5 30.373 29.5 31.45C29.5 32.527 30.373 33.4 31.45 33.4C32.527 33.4 33.4 32.527 33.4 31.45C33.4 30.373 32.527 29.5 31.45 29.5ZM26.9 31.45C26.9 28.9371 28.9371 26.9 31.45 26.9C33.9629 26.9 36 28.9371 36 31.45C36 33.9629 33.9629 36 31.45 36C28.9371 36 26.9 33.9629 26.9 31.45Z" fill="url(#paint0_linear)"/>
<defs>
<linearGradient id="paint0_linear" x1="27.8296" y1="10" x2="7.75448" y2="95.9642" gradientUnits="userSpaceOnUse">
<stop offset="0.126157" stop-color="#FFB74B"/>
<stop offset="0.537615" stop-color="#DD8E19"/>
</linearGradient>
</defs>
</svg>
