<svg width="14" height="14" viewBox="0 0 14 14" fill="none" xmlns="http://www.w3.org/2000/svg">
<path opacity="0.85" d="M0.77 9.62889C1.72667 9.62889 2.65222 9.47333 3.51556 9.19333C3.78778 9.1 4.09111 9.17 4.30111 9.38L5.52222 10.9122C7.72333 9.86222 9.78444 7.87889 10.8811 5.6L9.36444 4.30889C9.15444 4.09111 9.09222 3.78778 9.17778 3.51556C9.46556 2.65222 9.61333 1.72667 9.61333 0.77C9.61333 0.35 9.96333 0 10.3833 0H13.0744C13.4944 0 14 0.186667 14 0.77C14 7.99556 7.98778 14 0.77 14C0.217777 14 0 13.51 0 13.0822V10.3989C0 9.97889 0.349999 9.62889 0.77 9.62889Z" fill="#FDBA56"/>
</svg>
