<svg width="17" height="17" viewBox="0 0 17 17" fill="none" xmlns="http://www.w3.org/2000/svg">
<path d="M0.934999 11.6922C2.09667 11.6922 3.22056 11.5033 4.26889 11.1633C4.59945 11.05 4.96778 11.135 5.22278 11.39L6.70556 13.2506C9.37833 11.9756 11.8811 9.56722 13.2128 6.8L11.3711 5.23222C11.1161 4.96778 11.0406 4.59944 11.1444 4.26889C11.4939 3.22056 11.6733 2.09667 11.6733 0.935C11.6733 0.425 12.0983 0 12.6083 0H15.8761C16.3861 0 17 0.226667 17 0.935C17 9.70889 9.69944 17 0.934999 17C0.264444 17 0 16.405 0 15.8856V12.6272C0 12.1172 0.425001 11.6922 0.934999 11.6922Z" fill="white"/>
</svg>
