<svg width="47" height="47" viewBox="0 0 47 47" fill="none" xmlns="http://www.w3.org/2000/svg">
<path d="M36.049 8.131C35.4913 8.131 34.946 8.29639 34.4823 8.60626C34.0185 8.91612 33.6571 9.35654 33.4437 9.87183C33.2302 10.3871 33.1744 10.9541 33.2832 11.5012C33.392 12.0482 33.6606 12.5507 34.055 12.945C34.4493 13.3394 34.9518 13.608 35.4988 13.7168C36.0459 13.8256 36.6129 13.7698 37.1282 13.5563C37.6435 13.3429 38.0839 12.9815 38.3937 12.5177C38.7036 12.054 38.869 11.5087 38.869 10.951C38.869 10.2031 38.5719 9.48581 38.043 8.95696C37.5142 8.42811 36.7969 8.131 36.049 8.131ZM46.859 13.818C46.8133 11.8682 46.4481 9.9391 45.778 8.1075C45.1805 6.54036 44.2505 5.1213 43.052 3.948C41.8883 2.74345 40.466 1.81931 38.8925 1.2455C37.0657 0.554978 35.1345 0.181443 33.182 0.141C30.691 -1.31316e-07 29.892 0 23.5 0C17.108 0 16.309 -1.31316e-07 13.818 0.141C11.8655 0.181443 9.93426 0.554978 8.1075 1.2455C6.53694 1.82512 5.11579 2.74847 3.948 3.948C2.74345 5.11167 1.81931 6.53403 1.2455 8.1075C0.554978 9.93426 0.181443 11.8655 0.141 13.818C-1.31316e-07 16.309 0 17.108 0 23.5C0 29.892 -1.31316e-07 30.691 0.141 33.182C0.181443 35.1345 0.554978 37.0657 1.2455 38.8925C1.81931 40.466 2.74345 41.8883 3.948 43.052C5.11579 44.2515 6.53694 45.1749 8.1075 45.7545C9.93426 46.445 11.8655 46.8186 13.818 46.859C16.309 47 17.108 47 23.5 47C29.892 47 30.691 47 33.182 46.859C35.1345 46.8186 37.0657 46.445 38.8925 45.7545C40.466 45.1807 41.8883 44.2565 43.052 43.052C44.2558 41.8831 45.1866 40.4628 45.778 38.8925C46.4481 37.0609 46.8133 35.1318 46.859 33.182C46.859 30.691 47 29.892 47 23.5C47 17.108 47 16.309 46.859 13.818ZM42.629 32.9C42.6119 34.3917 42.3417 35.8697 41.83 37.271C41.4548 38.2937 40.8521 39.2178 40.0675 39.9735C39.3053 40.7502 38.3831 41.3516 37.365 41.736C35.9637 42.2477 34.4857 42.5179 32.994 42.535C30.644 42.6525 29.7745 42.676 23.594 42.676C17.4135 42.676 16.544 42.676 14.194 42.535C12.6451 42.564 11.1028 42.3255 9.635 41.83C8.66159 41.426 7.78169 40.826 7.05 40.0675C6.27001 39.3126 5.67488 38.3877 5.311 37.365C4.73726 35.9436 4.41904 34.4321 4.371 32.9C4.371 30.55 4.23 29.6805 4.23 23.5C4.23 17.3195 4.23 16.45 4.371 14.1C4.38153 12.575 4.65993 11.0637 5.1935 9.635C5.60721 8.64309 6.24222 7.7589 7.05 7.05C7.76396 6.24199 8.64633 5.60027 9.635 5.17C11.0674 4.6531 12.5772 4.38294 14.1 4.371C16.45 4.371 17.3195 4.23 23.5 4.23C29.6805 4.23 30.55 4.23 32.9 4.371C34.3917 4.38811 35.8697 4.65828 37.271 5.17C38.3389 5.56633 39.2974 6.21069 40.0675 7.05C40.8376 7.77187 41.4393 8.65442 41.83 9.635C42.3523 11.066 42.6226 12.5767 42.629 14.1C42.7465 16.45 42.77 17.3195 42.77 23.5C42.77 29.6805 42.7465 30.55 42.629 32.9ZM23.5 11.4445C21.1167 11.4491 18.7882 12.1601 16.8087 13.4876C14.8293 14.8151 13.2878 16.6996 12.3789 18.9028C11.4701 21.1061 11.2347 23.5293 11.7025 25.8663C12.1703 28.2033 13.3204 30.3492 15.0073 32.0328C16.6942 33.7164 18.8423 34.8623 21.1802 35.3255C23.5181 35.7888 25.9409 35.5487 28.1423 34.6356C30.3438 33.7224 32.2253 32.1772 33.5489 30.1952C34.8725 28.2132 35.579 25.8834 35.579 23.5C35.5821 21.914 35.2716 20.343 34.6654 18.8774C34.0592 17.4119 33.1692 16.0806 32.0466 14.9602C30.9241 13.8398 29.5911 12.9524 28.1243 12.3491C26.6576 11.7457 25.086 11.4383 23.5 11.4445ZM23.5 31.3255C21.9523 31.3255 20.4393 30.8665 19.1524 30.0067C17.8655 29.1468 16.8625 27.9246 16.2702 26.4947C15.6779 25.0648 15.5229 23.4913 15.8249 21.9733C16.1268 20.4553 16.8721 19.061 17.9665 17.9665C19.061 16.8721 20.4553 16.1268 21.9733 15.8249C23.4913 15.5229 25.0648 15.6779 26.4947 16.2702C27.9246 16.8625 29.1468 17.8655 30.0067 19.1524C30.8665 20.4393 31.3255 21.9523 31.3255 23.5C31.3255 24.5277 31.1231 25.5453 30.7298 26.4947C30.3365 27.4441 29.7601 28.3068 29.0335 29.0335C28.3068 29.7601 27.4441 30.3365 26.4947 30.7298C25.5453 31.1231 24.5277 31.3255 23.5 31.3255Z" fill="#282828"/>
</svg>
