<svg width="50" height="51" viewBox="0 0 50 51" fill="none" xmlns="http://www.w3.org/2000/svg">
<path d="M38.35 8.77004C37.7567 8.77004 37.1766 8.94843 36.6833 9.28265C36.1899 9.61687 35.8054 10.0919 35.5784 10.6477C35.3513 11.2035 35.2919 11.815 35.4076 12.4051C35.5234 12.9951 35.8091 13.5371 36.2287 13.9624C36.6482 14.3878 37.1828 14.6775 37.7647 14.7949C38.3467 14.9122 38.9499 14.852 39.4981 14.6218C40.0462 14.3916 40.5148 14.0017 40.8444 13.5015C41.1741 13.0013 41.35 12.4133 41.35 11.8117C41.35 11.005 41.0339 10.2313 40.4713 9.66091C39.9087 9.0905 39.1456 8.77004 38.35 8.77004ZM49.85 14.904C49.8014 12.801 49.4129 10.7202 48.7 8.74469C48.0643 7.05439 47.075 5.5238 45.8 4.25829C44.5621 2.95907 43.0489 1.9623 41.375 1.34339C39.4316 0.598595 37.3771 0.195704 35.3 0.152081C32.65 -1.41637e-07 31.8 0 25 0C18.2 0 17.35 -1.41637e-07 14.7 0.152081C12.6229 0.195704 10.5684 0.598595 8.625 1.34339C6.95419 1.96857 5.44233 2.96448 4.2 4.25829C2.91857 5.51341 1.93544 7.04756 1.325 8.74469C0.590402 10.715 0.193025 12.7981 0.15 14.904C-1.39698e-07 17.5908 0 18.4526 0 25.3469C0 32.2413 -1.39698e-07 33.1031 0.15 35.7899C0.193025 37.8958 0.590402 39.9789 1.325 41.9492C1.93544 43.6463 2.91857 45.1805 4.2 46.4356C5.44233 47.7294 6.95419 48.7253 8.625 49.3505C10.5684 50.0953 12.6229 50.4982 14.7 50.5418C17.35 50.6939 18.2 50.6939 25 50.6939C31.8 50.6939 32.65 50.6939 35.3 50.5418C37.3771 50.4982 39.4316 50.0953 41.375 49.3505C43.0489 48.7316 44.5621 47.7348 45.8 46.4356C47.0806 45.1748 48.0708 43.6429 48.7 41.9492C49.4129 39.9736 49.8014 37.8929 49.85 35.7899C49.85 33.1031 50 32.2413 50 25.3469C50 18.4526 50 17.5908 49.85 14.904ZM45.35 35.4857C45.3318 37.0947 45.0444 38.6888 44.5 40.2002C44.1008 41.3033 43.4597 42.3 42.625 43.1151C41.8141 43.9529 40.8331 44.6016 39.75 45.0162C38.2593 45.5681 36.6869 45.8595 35.1 45.878C32.6 46.0047 31.675 46.03 25.1 46.03C18.525 46.03 17.6 46.03 15.1 45.878C13.4522 45.9092 11.8115 45.652 10.25 45.1175C9.21445 44.6818 8.27839 44.0347 7.5 43.2165C6.67022 42.4023 6.03711 41.4047 5.65 40.3016C5.03964 38.7685 4.70111 37.1382 4.65 35.4857C4.65 32.951 4.5 32.0132 4.5 25.3469C4.5 18.6807 4.5 17.7429 4.65 15.2082C4.66121 13.5633 4.95738 11.9332 5.525 10.3922C5.96512 9.32238 6.64066 8.36869 7.5 7.60408C8.25953 6.73257 9.19822 6.04042 10.25 5.57633C11.7739 5.0188 13.38 4.72741 15 4.71453C17.5 4.71453 18.425 4.56245 25 4.56245C31.575 4.56245 32.5 4.56245 35 4.71453C36.5869 4.73298 38.1593 5.02439 39.65 5.57633C40.7861 6.00381 41.8057 6.69881 42.625 7.60408C43.4443 8.38268 44.0844 9.3346 44.5 10.3922C45.0556 11.9357 45.3432 13.5651 45.35 15.2082C45.475 17.7429 45.5 18.6807 45.5 25.3469C45.5 32.0132 45.475 32.951 45.35 35.4857ZM25 12.344C22.4645 12.349 19.9874 13.1158 17.8816 14.5477C15.7759 15.9795 14.1359 18.012 13.1691 20.3885C12.2022 22.7649 11.9518 25.3785 12.4495 27.8992C12.9472 30.4199 14.1706 32.7344 15.9652 34.5504C17.7598 36.3663 20.045 37.6022 22.5321 38.1019C25.0193 38.6016 27.5967 38.3426 29.9387 37.3577C32.2807 36.3728 34.2822 34.7061 35.6903 32.5684C37.0984 30.4306 37.85 27.9176 37.85 25.3469C37.8533 23.6363 37.523 21.9418 36.8781 20.3611C36.2332 18.7803 35.2864 17.3444 34.0922 16.136C32.898 14.9276 31.4799 13.9704 29.9195 13.3196C28.3591 12.6689 26.6872 12.3373 25 12.344ZM25 33.7875C23.3535 33.7875 21.7439 33.2924 20.3749 32.365C19.0058 31.4375 17.9388 30.1193 17.3087 28.577C16.6786 27.0347 16.5137 25.3376 16.835 23.7003C17.1562 22.063 17.9491 20.559 19.1133 19.3786C20.2776 18.1982 21.761 17.3943 23.3759 17.0686C24.9908 16.7429 26.6646 16.9101 28.1858 17.5489C29.707 18.1877 31.0072 19.2696 31.922 20.6576C32.8367 22.0457 33.325 23.6776 33.325 25.3469C33.325 26.4554 33.1097 27.5529 32.6913 28.577C32.2729 29.601 31.6597 30.5315 30.8867 31.3153C30.1136 32.0991 29.1959 32.7208 28.1858 33.145C27.1758 33.5691 26.0933 33.7875 25 33.7875Z" fill="#FFCA0F"/>
</svg>
