<svg width="25" height="31" viewBox="0 0 25 31" fill="none" xmlns="http://www.w3.org/2000/svg">
<rect x="0.320833" y="0.183633" width="5.65869" height="29.6683" transform="matrix(0.976146 -0.217116 0.307188 0.951649 -0.0487565 1.4157)" fill="url(#paint0_linear)" stroke="#555555" stroke-width="0.5"/>
<path d="M15.3107 29.7823L24.6772 1.55282L19.1555 0.324665L9.64666 29.7823L15.3107 29.7823Z" fill="url(#paint1_linear)" stroke="#555555" stroke-width="0.5"/>
<path d="M10.946 25.3044C10.4904 23.1753 5.93383 15.5567 6.25 12.2732C6.62653 8.36267 3.79748 4.4678 1.65254 1.41158M11.4927 23.6484C11.4927 21.2828 9.02778 18.4095 8.33333 14.3186C7.63889 10.2277 6.16601 6.53376 5.55556 5.45499C4.9451 4.37622 3.79748 2.72772 3.01923 1.17505M4.38591 0.701904C5.20592 1.64815 6.02593 2.12128 6.84595 3.77723M3.79748 0.931924C6.02593 3.54065 7.66596 7.79878 9.03264 10.401M4.86111 15.0004C5.06296 13.0877 5.21075 11.2868 4.86111 10.2277C4.51148 9.16861 3.29256 6.26782 1.65254 5.32157M10.126 27.9066C9.85265 25.7775 8.48597 21.0463 6.02593 18.9172M11.766 29.5604C13.6211 23.8033 14.2422 23.1426 15.6869 21.2919C17.1316 19.4411 18.8652 17.1276 17.7095 15.7395C16.9389 14.8141 15.4296 15.9709 14.5311 18.053C13.6327 20.1351 12.4929 25.7783 10.6727 29.5604M13.9527 29.5604C14.2602 28.2077 14.8858 25.1528 17.5289 23.2476M12.8594 29.5604C12.8995 28.2487 14.9225 24.0988 17.231 21.0605C18.9646 18.2843 18.981 16.0724 19.3596 12.7314C19.8314 8.56773 23.4371 0.899248 23.2988 1.39595M22.1528 1.2152C20.3198 5.37946 18.3867 10.6499 16.942 12.732C15.4973 14.8141 14.6305 15.7395 13.4747 17.8216M20.5989 0.701905C19.9216 1.6273 19.5514 3.14151 17.5289 5.45499M21.3328 0.933253C19.8881 3.01538 18.2873 8.33638 15.9758 10.4185M24.0662 1.6273C23.392 3.16962 22.1984 6.56379 21.4657 8.79908C20.733 11.0344 20.3306 12.8766 20.3306 14.2293M16.8426 16.2022C16.637 16.2463 15.8785 17.0139 15.635 17.4812C15.2361 18.2469 14.5311 19.8831 15.6588 19.3329C15.9758 19.1783 16.3251 18.7387 16.356 18.6904C17.1316 17.4813 17.233 16.1184 16.8426 16.2022Z" stroke="#555555" stroke-width="0.3"/>
<defs>
<linearGradient id="paint0_linear" x1="1.32331" y1="29.7047" x2="6.99018" y2="-9.38859" gradientUnits="userSpaceOnUse">
<stop offset="0.00713953" stop-color="#87683B"/>
<stop offset="0.790263" stop-color="#F5D276"/>
</linearGradient>
<linearGradient id="paint1_linear" x1="18.75" y1="17.0455" x2="-20.9683" y2="2.11807" gradientUnits="userSpaceOnUse">
<stop stop-color="#F0C454"/>
<stop offset="0.297523" stop-color="#EAE5E5"/>
</linearGradient>
</defs>
</svg>
