<svg width="47" height="60" viewBox="0 0 47 60" fill="none" xmlns="http://www.w3.org/2000/svg">
<rect x="-0.636036" y="-0.36512" width="10.3545" height="56.3165" transform="matrix(-0.974484 0.224455 -0.297587 -0.954695 44.6486 56.6584)" fill="url(#paint0_linear)" stroke="#282828"/>
<path d="M0.636036 56.8022L10.7263 59.1264L28.2484 2.91361L18.1581 0.589487L0.636036 56.8022Z" fill="url(#paint1_linear)" stroke="#282828"/>
<path d="M26 11.0694C26.8333 15.2173 34.5783 30.942 34 37.339C33.5 42.8695 39 52.5477 43 57.6173M25 14.2956C25 18.9042 32.125 31.3477 31.5 35.9564C30.875 40.5651 34.8833 49.0635 36 51.1651C37.1167 53.2668 39 54.4999 40.5 58.0781M38 58.9999C36.5 57.1564 35 56.2347 33.5 53.0085M39.0764 58.5518C35 53.4694 32 45.1738 29.5 40.1042M37.5 32.7303C36.5 39.1825 35.6429 38.7216 36.5 41.4868C37.3571 44.2521 40 48.1564 43 49.9999M27.5 5.99988C28 10.1477 30.5 19.3651 35 23.5129" stroke="#282828" stroke-width="0.4"/>
<path d="M24.9496 2.26212C21.5561 13.4781 19.9705 15.281 17.3278 18.8867C14.6851 22.4923 11.5138 26.9994 13.628 29.7037C15.0374 31.5066 17.7985 29.253 19.442 25.1966C21.0854 21.1402 23.6703 9.87247 27 2.50428M20.8337 0.999878C21.0854 2.69087 18.8348 10.2883 14 13.9999M22.9599 1.75963C22.8865 4.31495 18.726 13.4181 14.5032 19.3373C11.332 24.7459 11.302 29.0552 10.6094 35.564C9.74634 43.6757 3.15079 58.6154 3.40374 57.6477M5.5 57.9999C8.85308 49.8871 12.3891 39.6193 15.0318 35.5629C17.6745 31.5065 19.2601 29.7037 21.3743 25.6473M8.34253 58.9999C9.58143 57.197 9.39962 55.3942 13.0994 50.8871M7 58.5492C9.64272 54.4928 12.5709 44.1264 16.7992 40.07M2 57.197C3.23327 54.1923 5.96408 47.2814 6.7569 43.225C7.54971 39.1686 8.34253 34.2108 8.34253 32.408M15.2136 28.8023C15.5898 28.7163 16.9772 27.2209 17.4226 26.3105C18.1523 24.8189 19.4419 21.6312 17.379 22.7031C16.7992 23.0043 16.1603 23.8607 16.1037 23.9547C14.6851 26.3104 14.4995 28.9654 15.2136 28.8023Z" stroke="#282828" stroke-width="0.4"/>
<defs>
<linearGradient id="paint0_linear" x1="-4.98639" y1="7.97142" x2="23.6392" y2="66.0071" gradientUnits="userSpaceOnUse">
<stop offset="0.290425" stop-color="#B18E31"/>
<stop offset="0.953554" stop-color="#523F3F"/>
</linearGradient>
<linearGradient id="paint1_linear" x1="18.3532" y1="25.1957" x2="-51.2456" y2="6.74041" gradientUnits="userSpaceOnUse">
<stop stop-color="#F0C454"/>
<stop offset="0.277979" stop-color="#EAE5E5"/>
</linearGradient>
</defs>
</svg>