<svg width="61" height="60" viewBox="0 0 61 60" fill="none" xmlns="http://www.w3.org/2000/svg">
<path opacity="0.8" fill-rule="evenodd" clip-rule="evenodd" d="M11.3838 5.99976C8.90037 5.99976 6.88718 8.01447 6.88718 10.4998C6.88718 12.985 8.90037 14.9998 11.3838 14.9998C13.8672 14.9998 15.8804 12.985 15.8804 10.4998C15.8804 8.01447 13.8672 5.99976 11.3838 5.99976ZM0.891724 10.4998C0.891724 4.70077 5.58917 -0.000244096 11.3838 -0.000244096C17.1784 -0.000244096 21.8758 4.70077 21.8758 10.4998C21.8758 16.2987 17.1784 20.9998 11.3838 20.9998C5.58917 20.9998 0.891724 16.2987 0.891724 10.4998ZM59.9683 0.878436C61.139 2.05001 61.139 3.9495 59.9683 5.12108L6.00917 59.1211C4.83848 60.2926 2.94042 60.2926 1.76974 59.1211C0.599052 57.9495 0.599052 56.05 1.76974 54.8784L55.7289 0.878436C56.8995 -0.293137 58.7976 -0.293137 59.9683 0.878436ZM50.3542 44.9998C47.8708 44.9998 45.8577 47.0145 45.8577 49.4998C45.8577 51.985 47.8708 53.9998 50.3542 53.9998C52.8376 53.9998 54.8508 51.985 54.8508 49.4998C54.8508 47.0145 52.8376 44.9998 50.3542 44.9998ZM39.8622 49.4998C39.8622 43.7008 44.5597 38.9998 50.3542 38.9998C56.1488 38.9998 60.8463 43.7008 60.8463 49.4998C60.8463 55.2987 56.1488 59.9998 50.3542 59.9998C44.5597 59.9998 39.8622 55.2987 39.8622 49.4998Z" fill="#F9B247"/>
</svg>
