<svg width="62" height="63" viewBox="0 0 62 63" fill="none" xmlns="http://www.w3.org/2000/svg">
<g filter="url(#filter0_d)">
<path d="M4.97 38.8278C8.66 38.8278 12.23 38.2167 15.56 37.1167C16.61 36.75 17.78 37.025 18.59 37.85L23.3 43.8694C31.79 39.7444 39.74 31.9528 43.97 23L38.12 17.9278C37.31 17.0722 37.07 15.8806 37.4 14.8111C38.51 11.4194 39.08 7.78333 39.08 4.025C39.08 2.375 40.43 1 42.05 1H52.43C54.05 1 56 1.73333 56 4.025C56 32.4111 32.81 56 4.97 56C2.84 56 2 54.075 2 52.3944V41.8528C2 40.2028 3.35 38.8278 4.97 38.8278Z" fill="url(#paint0_linear)"/>
</g>
<defs>
<filter id="filter0_d" x="0" y="0" width="62" height="63" filterUnits="userSpaceOnUse" color-interpolation-filters="sRGB">
<feFlood flood-opacity="0" result="BackgroundImageFix"/>
<feColorMatrix in="SourceAlpha" type="matrix" values="0 0 0 0 0 0 0 0 0 0 0 0 0 0 0 0 0 0 127 0"/>
<feOffset dx="2" dy="3"/>
<feGaussianBlur stdDeviation="2"/>
<feColorMatrix type="matrix" values="0 0 0 0 0.992157 0 0 0 0 0.698039 0 0 0 0 0.258824 0 0 0 0.2 0"/>
<feBlend mode="normal" in2="BackgroundImageFix" result="effect1_dropShadow"/>
<feBlend mode="normal" in="SourceGraphic" in2="effect1_dropShadow" result="shape"/>
</filter>
<linearGradient id="paint0_linear" x1="-19.8298" y1="-48.5" x2="98.6721" y2="180.282" gradientUnits="userSpaceOnUse">
<stop offset="0.124457" stop-color="#FF6868"/>
<stop offset="0.464699" stop-color="#FFDD2C"/>
</linearGradient>
</defs>
</svg>
