<svg width="32" height="32" viewBox="0 0 32 32" fill="none" xmlns="http://www.w3.org/2000/svg">
<path d="M23.3785 2.92497C22.2288 2.92497 21.1696 3.53854 20.6114 4.52774L18.6757 7.95889C18.1688 8.85742 18.145 9.9442 18.6121 10.8633L20.2103 14.0069L20.1858 14.083L20.0358 14.5001C19.7345 15.2827 19.3154 16.0665 18.7642 16.7922C18.5213 17.112 18.2572 17.4139 17.9712 17.6953C17.6887 17.9734 17.3861 18.23 17.066 18.4662C16.3283 19.0104 15.5316 19.4232 14.7364 19.7188C14.5811 19.7766 14.4391 19.8253 14.3127 19.8658L14.2358 19.8894L11.0381 18.3172C10.1969 17.9032 9.21749 17.881 8.36412 18.2451L8.08469 18.3807L4.58809 20.2936C3.58369 20.843 2.96089 21.8849 2.96089 23.0157V26.9659C2.96089 30.0419 5.91998 32.2474 8.88524 31.2627C14.8118 29.295 20.0622 26.6488 23.5661 23.2008C27.07 19.753 29.7592 14.5865 31.7589 8.75462C32.7595 5.83673 30.5181 2.92497 27.3923 2.92497H23.3785ZM23.3785 6.03935H27.3923C28.3932 6.03935 29.0549 6.89902 28.7601 7.75892C26.903 13.1746 24.4081 17.968 21.3281 20.9986C18.2482 24.0294 13.377 26.4845 7.87333 28.3118C6.99948 28.602 6.12585 27.9508 6.12585 26.9659V23.0157L9.6226 21.1027L13.3517 22.9374C13.6626 23.0904 14.0161 23.1383 14.3575 23.0739C15.5624 22.8465 17.2602 22.2154 18.9645 20.958C19.4023 20.6351 19.8184 20.2821 20.2092 19.8976C20.6046 19.5084 20.9675 19.0935 21.2994 18.6566C22.5704 16.9831 23.2119 15.3165 23.4456 14.1342C23.5123 13.7971 23.4638 13.4477 23.3077 13.1405L21.4428 9.47041L23.3785 6.03935ZM8.97206 0.851557C6.90721 1.36105 5.01339 2.40816 3.47629 3.92068C1.93914 5.43327 0.874987 7.29687 0.357283 9.32869C-0.0240211 10.825 -0.100826 12.3834 0.130272 13.9088C0.259136 14.7594 1.06436 15.3462 1.92879 15.2194C2.79321 15.0926 3.38951 14.3002 3.26064 13.4496C3.09092 12.3293 3.14734 11.1844 3.42721 10.0862C3.80654 8.59739 4.58502 7.23407 5.71425 6.12289C6.84344 5.01176 8.22888 4.24574 9.74186 3.87242C10.8579 3.59705 12.0215 3.54152 13.16 3.70852C14.0244 3.83532 14.8297 3.24855 14.9585 2.39793C15.0874 1.54732 14.4911 0.754969 13.6266 0.628174C12.0764 0.400787 10.4926 0.476368 8.97206 0.851557ZM7.92022 7.95708C6.48411 9.37023 5.84204 11.345 6.13571 13.2835C6.26457 14.1341 7.06979 14.7209 7.93422 14.5941C8.7369 14.4764 9.30839 13.7847 9.28276 13.0055L9.26608 12.8243C9.11876 11.8518 9.43895 10.867 10.1581 10.1593C10.8056 9.52228 11.681 9.20334 12.57 9.2516L12.8665 9.28136C13.731 9.40816 14.5362 8.82139 14.665 7.97078C14.7939 7.12016 14.1976 6.32781 13.3332 6.20101C11.3633 5.91205 9.35645 6.54389 7.92022 7.95708Z" fill="#FFCA0F"/>
</svg>
