<svg width="50" height="54" viewBox="0 0 50 54" fill="none" xmlns="http://www.w3.org/2000/svg">
<path d="M44.3601 5.26981C43.0508 4.0345 37.7563 0.0945534 25.9591 0.0382989C25.9591 0.0382989 12.0508 -0.816746 5.27564 5.55333C1.49923 9.42353 0.172319 15.0691 0.0317194 22.0939C-0.111078 29.1008 -0.291221 42.2415 12.0837 45.8101H12.0947L12.0837 51.2464C12.0837 51.2464 12.009 53.4493 13.4216 53.897C15.133 54.4371 16.1369 52.763 17.7714 50.9651C18.6699 49.9773 19.9068 48.517 20.8404 47.4055C29.3006 48.13 35.8077 46.4694 36.5458 46.2242C38.2528 45.6526 47.9168 44.3881 49.492 31.2429C51.1133 17.695 48.7077 9.12426 44.3557 5.26081V5.26981H44.3601ZM45.7925 30.2731C44.4414 41.2447 36.6008 41.9444 35.1816 42.4147C34.5555 42.6217 28.8217 44.0753 21.6401 43.596C21.6401 43.596 16.2688 50.2136 14.6211 51.9327C14.3553 52.2049 14.0258 52.3062 13.828 52.2589C13.5315 52.1937 13.4678 51.8539 13.4678 51.3499L13.5007 42.3359C13.4678 42.3359 13.5007 42.3359 13.5007 42.3359C3.01946 39.3298 3.64776 28.158 3.77957 22.2874C3.87623 16.4461 4.96149 11.6534 8.16012 8.41096C13.8961 3.07594 25.7285 3.88373 25.7285 3.88373C35.7088 3.91973 40.4936 7.00014 41.5964 8.03744C45.274 11.2596 47.1523 18.9843 45.7793 30.2978L45.7925 30.2731V30.2731ZM15.6449 11.2101C16.1765 11.2101 16.6532 11.4554 17.0267 11.9099C17.0355 11.9144 18.3009 13.4737 18.8501 14.2365C19.3663 14.9566 20.0606 16.1041 20.4121 16.7454C21.0382 17.893 20.6405 19.0675 20.0342 19.5535L18.7908 20.5661C18.1647 21.0814 18.2416 22.0354 18.2416 22.0354C18.2416 22.0354 20.0869 29.139 26.9389 30.9301C26.9389 30.9301 27.8748 31.0179 28.3757 30.3766L29.3665 29.0963C29.8344 28.455 30.979 28.05 32.0994 28.689C32.7255 29.0265 33.8459 29.7376 34.5511 30.2731C35.2958 30.8131 36.8183 32.1317 36.827 32.1317C37.552 32.7415 37.7146 33.682 37.2225 34.6271V34.6631C36.7172 35.5744 36.034 36.4182 35.1706 37.2305H35.153C34.4632 37.838 33.7712 38.1755 33.0792 38.2408C33.0133 38.2408 32.9144 38.2768 32.7804 38.2408C32.4838 38.2408 32.1873 38.1755 31.8929 38.1035V38.072C30.8384 37.7682 29.0919 36.9919 26.1898 35.3358C24.3115 34.258 22.7319 33.1757 21.3809 32.0619C20.6889 31.4882 19.9639 30.8469 19.2367 30.1043L19.0698 30.0413L19.0039 29.9738L18.9402 29.9086C18.213 29.166 17.5891 28.4235 17.0267 27.7035C15.9722 26.3331 14.9177 24.7176 13.8654 22.778C12.2507 19.8078 11.4928 18.019 11.1962 16.9367H11.161C11.0622 16.6352 10.9963 16.3314 11.0292 16.0276C10.9963 15.8904 11.0292 15.7914 11.0292 15.7104C11.0951 15.0376 11.4444 14.3288 12.0354 13.5863H12.0464C12.8263 12.7087 13.6677 12.0022 14.564 11.4869C14.9243 11.2822 15.2868 11.1832 15.6163 11.1832H15.6514L15.6448 11.2102L15.6449 11.2101ZM24.641 9.67329H24.8959L25.0628 9.67779H25.1068L25.3023 9.68904H26.4249L26.7215 9.72279H26.884L27.2136 9.75879H27.2795L27.5079 9.79254H27.5431L27.7057 9.82629C27.8067 9.82629 27.8726 9.86229 27.9363 9.86229H28.1362L28.301 9.92754L28.4328 9.96354L28.5646 9.99729L28.6305 10.031H28.7294L28.8305 10.067H28.8942L29.0567 10.103L29.1556 10.1345L29.2566 10.1705L29.3885 10.2065L29.4544 10.238C29.5203 10.238 29.5862 10.274 29.6543 10.274L29.7509 10.3078L29.852 10.3438L30.1134 10.4428L30.2474 10.5125L30.544 10.6475L30.6429 10.6813L30.7417 10.7173L30.9394 10.8185L31.0734 10.8523L31.1372 10.886L31.3041 10.9558L31.3678 10.9873L31.5018 11.057L31.6007 11.0885L31.6995 11.156L31.8292 11.2235L31.9302 11.2888L31.9961 11.3248L32.1301 11.3923L32.2268 11.4598L32.3916 11.561L32.4904 11.597L32.653 11.696L32.6881 11.7298L32.787 11.7995L32.9847 11.966L33.0858 12.0335L33.1824 12.101L33.2505 12.1325L33.3494 12.2023L33.512 12.3688L33.646 12.47L33.7448 12.5375L33.78 12.5713L33.8437 12.6073L34.0063 12.7445L34.1073 12.8435L34.1732 12.911L34.2721 12.9763L34.3709 13.046L34.4346 13.0798L34.6983 13.3498L34.8301 13.487L35.1267 13.7908L35.1948 13.856C35.2299 13.892 35.2936 13.9573 35.3288 14.0248L35.3925 14.0923L35.7572 14.5288L35.856 14.6638C35.8868 14.6998 35.8868 14.7335 35.9197 14.7335L36.1174 15.0373L36.2163 15.1385L36.414 15.4085L36.581 15.6785L36.6798 15.881L36.8095 16.1173L36.9083 16.3198L36.9435 16.385L37.0072 16.5223L37.1741 16.8598L37.3367 17.195L37.4048 17.3638C37.5344 17.6675 37.6333 17.9713 37.7651 18.3088C37.9277 18.7476 38.0617 19.2179 38.1605 19.7264C38.2594 20.0977 38.3275 20.4352 38.3912 20.8065L38.4549 21.414L38.5538 22.089C38.5889 22.3613 38.6219 22.6651 38.6219 22.9328C38.6526 23.2051 38.6526 23.4729 38.6526 23.7406V24.3166C38.6526 24.3526 38.6394 24.3819 38.6219 24.4179C38.5867 24.4854 38.5538 24.5191 38.4879 24.5866C38.4417 24.6204 38.3802 24.6901 38.3121 24.6901C38.2484 24.7216 38.1825 24.7216 38.1144 24.7216H38.0155C37.9518 24.7216 37.8859 24.6901 37.8178 24.6564C37.7541 24.6204 37.6838 24.5889 37.6553 24.5191C37.6201 24.4539 37.5564 24.3819 37.5212 24.3166C37.4861 24.2514 37.4531 24.1816 37.4531 24.1141V23.3064C37.4224 22.8361 37.3894 22.3501 37.3235 21.8685C37.2884 21.54 37.2247 21.2295 37.1895 20.9235C37.1895 20.757 37.1544 20.595 37.1258 20.4532L37.0621 20.1157L36.9786 19.7985L36.9435 19.596L36.8446 19.2585C36.7809 18.9885 36.682 18.7184 36.5832 18.4484C36.5195 18.2437 36.4492 18.0772 36.3525 17.9106L36.2888 17.7396L35.9922 17.1321L35.9241 17.0309C35.7901 16.7271 35.6275 16.4233 35.4298 16.1511L35.331 15.9846H34.8894L34.7488 15.7798C34.628 15.5796 34.4983 15.4086 34.3534 15.242L34.0787 14.9045L34.0458 14.8685L33.9447 14.7403L33.8678 14.639L33.7031 14.4725L33.6701 14.405L33.5163 14.27L33.4175 14.1665L33.2351 13.9978L33.1473 13.9145L33.0462 13.8133L33.0133 13.7773C32.9781 13.7435 32.9144 13.676 32.8485 13.6423L32.6815 13.5028L32.6156 13.469L32.4816 13.3655L32.3191 13.2305L32.2202 13.1495L32.1543 13.1135L32.0225 12.9943C32.0225 12.9583 31.9873 12.9583 31.9544 12.9583L31.8907 12.893L31.8577 12.857V12.8278L31.7918 12.7963L31.6578 12.713L31.5611 12.6433L31.3964 12.542L31.2646 12.4408L31.2008 12.4048L31.1305 12.3755H30.9328L30.8911 12.3395L30.7483 12.2608L30.7285 12.2293L30.6626 12.1933L30.5638 12.146H30.5374L30.4385 12.11L30.3836 12.0763L30.2848 12.0425L30.2628 12.0178L30.1969 11.9818L30.0804 11.9165L30.0145 11.8828L29.8168 11.8153L29.6543 11.75L29.3533 11.714L29.2566 11.6488C29.2237 11.6263 29.1907 11.6128 29.1556 11.6128L29.0919 11.579C29.0281 11.5543 28.993 11.543 28.9271 11.5115L28.8612 11.4755H28.7975L28.6635 11.4103L28.5998 11.3743L28.5009 11.3405H28.2988C28.2812 11.3405 28.257 11.3293 28.2329 11.3248H28.0352L27.9363 11.2888H27.9033L27.8045 11.2528H27.7144C27.6595 11.2213 27.6156 11.2213 27.5606 11.2213L27.5387 11.1853L27.4069 11.1515C27.3409 11.1155 27.2838 11.1155 27.2223 11.1155L27.1235 11.0818L27.0136 11.0458L26.9148 11.0143L26.7808 10.9783H26.6467L26.2535 10.9288H26.0558L25.8009 10.895H25.634L25.4846 10.877H25.4187L25.3001 10.841H24.674L24.652 10.8073H24.518C24.4521 10.8073 24.3774 10.7735 24.3203 10.7398C24.2544 10.7038 24.1863 10.6745 24.1423 10.6048L24.0764 10.5013C24.0127 10.436 24.0127 10.3663 23.9776 10.2988C23.9468 10.2358 23.9468 10.166 23.9468 10.0985C23.9468 10.031 23.9468 9.96354 23.9797 9.89604C24.0149 9.83079 24.0435 9.76104 24.1138 9.72729C24.1467 9.65979 24.2104 9.62829 24.2763 9.59229C24.34 9.55629 24.4103 9.52479 24.474 9.52479H24.6081L24.641 9.67329L24.641 9.67329ZM25.8581 13.215L25.9394 13.2217L26.0734 13.2352C26.091 13.2352 26.1129 13.2352 26.1371 13.242C26.1854 13.242 26.236 13.251 26.3019 13.2555L26.4337 13.2735L26.4864 13.3095L26.5853 13.3432L26.6907 13.377L26.7896 13.413H26.8555L26.9477 13.4467L27.1015 13.4805L27.2245 13.5165L27.2817 13.548H27.442L27.7035 13.611L27.8045 13.6447L27.9034 13.6785L28.0022 13.7145C28.0022 13.7145 28.0352 13.7145 28.0352 13.7482L28.1362 13.782L28.2329 13.818L28.3318 13.854C28.3647 13.854 28.3977 13.8855 28.4328 13.8855C28.4482 13.8855 28.4636 13.9215 28.4877 13.9215L28.6283 13.989H28.6921L28.8898 14.0565L28.9996 14.1217L29.1007 14.1892L29.3379 14.2905L29.4697 14.3242L29.5378 14.394C29.6367 14.4255 29.7356 14.493 29.8344 14.5267L29.9399 14.5942L30.0453 14.6617L30.153 14.727C30.2518 14.7945 30.3331 14.8305 30.4188 14.898L30.4825 14.9295L30.5726 14.9992L30.6209 15.033L30.7857 15.1342L30.867 15.2017L31.0097 15.2985L31.0735 15.3322L31.1394 15.366L31.2404 15.4335L31.3722 15.537C31.4052 15.5685 31.4206 15.5685 31.4469 15.6022C31.4689 15.636 31.4821 15.636 31.5019 15.6697L31.5743 15.7372L31.6534 15.8025L31.7193 15.87L31.8204 15.9735L31.8841 16.041L31.9193 16.077L32.117 16.2772L32.1521 16.3132C32.1521 16.347 32.1851 16.3807 32.2158 16.3807L32.251 16.41L32.3498 16.5135L32.4136 16.6147L32.4795 16.6822L32.5783 16.8172L32.6794 16.9207L32.8771 17.1885L32.9078 17.2537L33.0418 17.4247L33.077 17.49L33.1099 17.5597L33.1429 17.625L33.178 17.6925C33.2132 17.7262 33.2132 17.76 33.2418 17.8275L33.3362 17.9985L33.3714 18.0322L33.4351 18.1695L33.5032 18.2685C33.5339 18.3022 33.5339 18.3337 33.5669 18.3697L33.6328 18.471L33.6987 18.6082L33.7624 18.741L33.7976 18.8445C33.8305 18.9435 33.8964 19.0132 33.9294 19.1145C33.9294 19.1482 33.9623 19.1797 33.9623 19.2157L34.0612 19.4835L34.1952 19.9222C34.1952 19.9582 34.2281 20.0235 34.2281 20.0595L34.3292 20.3632L34.4259 20.7683L34.5269 21.3083C34.5577 21.4748 34.5577 21.612 34.5906 21.7831C34.6258 22.0508 34.6565 22.3186 34.6565 22.5909L34.6895 23.0634V23.4346C34.6895 23.4706 34.6895 23.4999 34.6565 23.5359L34.5599 23.6326C34.4962 23.6844 34.461 23.7339 34.3973 23.7699C34.3314 23.8036 34.2633 23.8351 34.1996 23.8599C34.1315 23.8959 34.0348 23.8959 33.9689 23.8959C33.9052 23.8959 33.8349 23.8599 33.7712 23.8284C33.7361 23.8284 33.7053 23.7924 33.6723 23.7811C33.6042 23.7496 33.5383 23.6934 33.5076 23.6349C33.4417 23.5674 33.4065 23.4999 33.4065 23.4301L33.3758 23.3311V22.6268C33.3758 22.3276 33.3406 22.0508 33.3077 21.7606C33.2747 21.4568 33.211 21.1193 33.1451 20.8155C33.0814 20.613 33.0462 20.4105 32.9803 20.2305L32.9144 20.0257L32.8507 19.857L32.8156 19.7895L32.7167 19.5195L32.6178 19.317L32.4531 18.9817L32.3015 18.7117V18.669L32.2378 18.5632L32.1719 18.4777L32.073 18.309L31.972 18.1717L31.7765 17.904C31.6754 17.7667 31.5787 17.634 31.4645 17.5035C31.4337 17.4697 31.4008 17.4382 31.4008 17.4022L31.3349 17.337L31.2975 17.301L31.2316 17.2695L31.1657 17.2087V16.8802L30.9043 16.626L30.7395 16.473V16.4415L30.6736 16.3717L30.5901 16.3065L30.5572 16.2705C30.5572 16.2367 30.522 16.2367 30.4935 16.2367L30.3924 16.2007L30.3595 16.167L30.2255 16.0657L30.1947 16.0297L30.1596 15.996C30.1332 15.9622 30.109 15.9622 30.0937 15.9622L29.9618 15.861L29.9267 15.825L29.7949 15.7597L29.7707 15.7237L29.6719 15.6585L29.6059 15.6225L29.54 15.5572L29.4763 15.4875H29.4412C29.3775 15.4222 29.3094 15.3885 29.2105 15.3525L29.1138 15.285L29.0479 15.2535L29.0128 15.2175L28.9139 15.15L28.8173 15.1162L28.6855 15.0487L28.5844 15.015L28.5515 14.979L28.4284 14.9475V14.9205L28.2285 14.853L28.0967 14.7855L28.0308 14.7517H27.899C27.8331 14.718 27.8001 14.718 27.7342 14.6842H27.6376L27.5387 14.6482H27.442L27.341 14.6167L27.2773 14.5807H27.1433L27.0093 14.547L26.9455 14.511H26.5831L26.4315 14.4772H25.6604L25.5593 14.4412C25.4956 14.4097 25.4275 14.376 25.3616 14.3062C25.3308 14.2387 25.2627 14.1712 25.2298 14.106C25.1968 14.0362 25.1639 13.9687 25.1639 13.9012V13.6987C25.1771 13.5952 25.199 13.53 25.2298 13.4625C25.2474 13.4287 25.2627 13.395 25.2957 13.3612C25.3352 13.2937 25.3946 13.2262 25.4605 13.1925C25.4934 13.1587 25.5264 13.1587 25.5571 13.1272C25.6252 13.0912 25.6911 13.0912 25.757 13.0912H25.8888L25.8581 13.215H25.8581ZM26.8555 16.8804C26.8884 16.8804 26.9214 16.8804 26.9521 16.8894C26.9873 16.8894 27.0202 16.8894 27.0532 16.8939L27.1674 16.9052C27.3959 16.9254 27.6353 16.9592 27.866 17.0087L28.0945 17.0604L28.1516 17.0784L28.4021 17.1437L28.5317 17.1887L28.6327 17.2247C28.7316 17.2562 28.8326 17.3259 28.9293 17.3597L28.9644 17.3934L29.0963 17.4609L29.294 17.5644L29.3577 17.5959C29.3928 17.6319 29.4258 17.6319 29.4587 17.6634C29.4917 17.6994 29.5576 17.7309 29.5906 17.7647C29.7246 17.8322 29.8212 17.9334 29.9201 18.0009L30.1508 18.2034L30.3485 18.4082L30.4825 18.5747L30.5462 18.6399L30.6121 18.7097L30.7088 18.8447L30.9087 19.1484L31.0734 19.4522L31.2053 19.7222L31.3063 19.9584C31.403 20.1924 31.4381 20.3972 31.504 20.6312C31.5677 20.8359 31.6029 21.0722 31.6358 21.2725L31.6688 21.61L31.7039 21.916V22.0487C31.7039 22.15 31.6688 22.2175 31.638 22.285C31.6051 22.3502 31.537 22.4515 31.4733 22.4875C31.4074 22.5527 31.3393 22.5887 31.2426 22.6247C31.1789 22.6562 31.1108 22.6562 31.0449 22.6562C30.9812 22.6562 30.9131 22.6562 30.8472 22.6247L30.6187 22.5212C30.5528 22.4537 30.4869 22.42 30.4188 22.3165C30.3858 22.2512 30.3551 22.1815 30.3199 22.0825V21.7089L30.287 21.4727L30.254 21.2049L30.2189 20.9687L30.1837 20.8337C30.1837 20.7999 30.153 20.7324 30.153 20.6987C30.0871 20.4264 29.9552 20.1587 29.8234 19.8886L29.6894 19.7536L29.5862 19.6186L29.4873 19.5174L29.4544 19.4499L29.2896 19.3149L29.1556 19.1776L29.026 19.0764C28.9908 19.0426 28.9601 19.0426 28.892 19.0111L28.6942 18.8739L28.5602 18.8064L28.4965 18.7726H28.4614L28.2944 18.7029L28.0967 18.6354L27.899 18.6016H27.7342L27.6376 18.5679L27.5607 18.5521H27.4618L27.33 18.5161H26.7698L26.7368 18.3474H26.6512C26.5853 18.3384 26.5303 18.3136 26.4754 18.2821C26.3985 18.2349 26.3348 18.1809 26.2777 18.1021C26.2382 18.0369 26.203 17.9649 26.1788 17.8996C26.1613 17.8344 26.1525 17.7646 26.1525 17.6971C26.1525 17.6139 26.1525 17.5284 26.1854 17.4429C26.2184 17.3551 26.2513 17.2854 26.3172 17.2179L26.4513 17.1166C26.515 17.0806 26.5853 17.0491 26.649 17.0491L26.7852 16.8804H26.8555L26.8555 16.8804Z" fill="url(#paint0_linear)"/>
<defs>
<linearGradient id="paint0_linear" x1="34.2877" y1="-1.69428e-07" x2="-10.3582" y2="177.018" gradientUnits="userSpaceOnUse">
<stop offset="0.126157" stop-color="#FFB74B"/>
<stop offset="0.537615" stop-color="#DD8E19"/>
</linearGradient>
</defs>
</svg>
