<svg width="47" height="50" viewBox="0 0 47 50" fill="none" xmlns="http://www.w3.org/2000/svg">
<path d="M41.6985 4.87946C40.4677 3.73565 35.4909 0.0875494 24.4016 0.0354619C24.4016 0.0354619 11.3277 -0.756246 4.9591 5.14197C1.40927 8.72549 0.16198 13.9528 0.0298162 20.4573C-0.104414 26.9452 -0.273748 39.1125 11.3587 42.4168H11.369L11.3587 47.4504C11.3587 47.4504 11.2885 49.4901 12.6163 49.9047C14.225 50.4047 15.1687 48.8546 16.7051 47.19C17.5497 46.2753 18.7124 44.9232 19.59 43.894C27.5425 44.5648 33.6592 43.0272 34.3531 42.8001C35.9576 42.271 45.0418 41.1001 46.5225 28.9286C48.0465 16.3842 45.7852 8.44839 41.6944 4.87112V4.87946H41.6985ZM43.0449 28.0306C41.7749 38.1895 34.4047 38.8374 33.0707 39.2729C32.4822 39.4646 27.0924 40.8105 20.3417 40.3667C20.3417 40.3667 15.2926 46.4941 13.7438 48.0858C13.494 48.3379 13.1842 48.4317 12.9984 48.3879C12.7196 48.3275 12.6597 48.0129 12.6597 47.5462L12.6907 39.2C12.6597 39.2 12.6907 39.2 12.6907 39.2C2.83829 36.4165 3.4289 26.0722 3.5528 20.6365C3.64366 15.2279 4.6638 10.7902 7.67052 7.78793C13.0624 2.84809 24.1848 3.59605 24.1848 3.59605C33.5663 3.62938 38.064 6.48161 39.1007 7.44208C42.5576 10.4256 44.3232 17.578 43.0325 28.0535L43.0449 28.0306V28.0306ZM14.7062 10.3797C15.2059 10.3797 15.654 10.6068 16.0051 11.0277C16.0133 11.0319 17.2028 12.4757 17.7191 13.182C18.2044 13.8487 18.8569 14.9112 19.1873 15.505C19.7759 16.5676 19.4021 17.6551 18.8321 18.1051L17.6633 19.0427C17.0748 19.5198 17.1471 20.4032 17.1471 20.4032C17.1471 20.4032 18.8817 26.9806 25.3226 28.639C25.3226 28.639 26.2023 28.7203 26.6732 28.1265L27.6045 26.941C28.0444 26.3472 29.1202 25.9722 30.1734 26.5639C30.762 26.8764 31.8151 27.5348 32.478 28.0307C33.1781 28.5307 34.6092 29.7516 34.6174 29.7516C35.2989 30.3162 35.4517 31.1871 34.9891 32.0621V32.0954C34.5142 32.9392 33.8719 33.7205 33.0604 34.4727H33.0438C32.3954 35.0352 31.7449 35.3477 31.0944 35.4081C31.0325 35.4081 30.9396 35.4415 30.8136 35.4081C30.5348 35.4081 30.256 35.3477 29.9793 35.281V35.2519C28.9881 34.9706 27.3464 34.2518 24.6184 32.7184C22.8528 31.7204 21.368 30.7183 20.098 29.687C19.4475 29.1557 18.7661 28.5619 18.0825 27.8744L17.9256 27.8161L17.8636 27.7536L17.8037 27.6931C17.1202 27.0056 16.5337 26.3181 16.0051 25.6514C15.0139 24.3825 14.0226 22.8866 13.0335 21.0907C11.5157 18.3406 10.8032 16.6842 10.5244 15.6821H10.4914C10.3985 15.4029 10.3365 15.1216 10.3675 14.8404C10.3365 14.7133 10.3675 14.6216 10.3675 14.5466C10.4294 13.9237 10.7578 13.2674 11.3133 12.5799H11.3236C12.0567 11.7673 12.8476 11.1131 13.6902 10.636C14.0288 10.4464 14.3696 10.3548 14.6793 10.3548H14.7124L14.7062 10.3798L14.7062 10.3797ZM23.1626 8.95675H23.4021L23.5591 8.96092H23.6004L23.7841 8.97134H24.8394L25.1182 9.00259H25.271L25.5807 9.03592H25.6427L25.8575 9.06717H25.8905L26.0433 9.09842C26.1383 9.09842 26.2003 9.13175 26.2601 9.13175H26.4481L26.6029 9.19217L26.7268 9.2255L26.8508 9.25675L26.9127 9.288H27.0056L27.1006 9.32134H27.1605L27.3133 9.35467L27.4063 9.38384L27.5012 9.41717L27.6252 9.4505L27.6871 9.47967C27.7491 9.47967 27.811 9.513 27.875 9.513L27.9659 9.54425L28.0609 9.57759L28.3066 9.66925L28.4326 9.73384L28.7114 9.85884L28.8043 9.89009L28.8972 9.92342L29.0831 10.0172L29.209 10.0484L29.2689 10.0797L29.4259 10.1443L29.4858 10.1734L29.6117 10.238L29.7047 10.2672L29.7976 10.3297L29.9194 10.3922L30.0144 10.4526L30.0764 10.4859L30.2023 10.5484L30.2932 10.6109L30.4481 10.7047L30.541 10.738L30.6938 10.8297L30.7268 10.8609L30.8198 10.9255L31.0056 11.0797L31.1006 11.1422L31.1915 11.2047L31.2555 11.2338L31.3484 11.2984L31.5012 11.4526L31.6272 11.5463L31.7201 11.6088L31.7532 11.6401L31.8131 11.6734L31.9659 11.8005L32.0609 11.8922L32.1228 11.9547L32.2158 12.0151L32.3087 12.0797L32.3686 12.1109L32.6164 12.3609L32.7403 12.488L33.0191 12.7693L33.0831 12.8297C33.1161 12.863 33.176 12.9234 33.209 12.9859L33.2689 13.0484L33.6117 13.4526L33.7047 13.5776C33.7336 13.6109 33.7336 13.6422 33.7645 13.6422L33.9504 13.9234L34.0433 14.0172L34.2292 14.2672L34.3861 14.5172L34.4791 14.7047L34.6009 14.9234L34.6938 15.1109L34.7269 15.1713L34.7867 15.2984L34.9437 15.6109L35.0965 15.9213L35.1605 16.0776C35.2824 16.3588 35.3753 16.6401 35.4992 16.9526C35.652 17.3589 35.778 17.7943 35.8709 18.2652C35.9638 18.6089 36.0278 18.9215 36.0877 19.2652L36.1476 19.8278L36.2405 20.4528C36.2736 20.7049 36.3046 20.9862 36.3046 21.2341C36.3335 21.4862 36.3335 21.7341 36.3335 21.9821V22.5154C36.3335 22.5487 36.3211 22.5758 36.3046 22.6092C36.2715 22.6717 36.2405 22.7029 36.1786 22.7654C36.1352 22.7967 36.0774 22.8612 36.0134 22.8612C35.9535 22.8904 35.8916 22.8904 35.8275 22.8904H35.7346C35.6747 22.8904 35.6128 22.8612 35.5488 22.83C35.4889 22.7967 35.4228 22.7675 35.3959 22.7029C35.3629 22.6425 35.303 22.5758 35.27 22.5154C35.2369 22.455 35.206 22.3904 35.206 22.3279V21.58C35.177 21.1445 35.1461 20.6945 35.0841 20.2486C35.0511 19.9445 34.9912 19.6569 34.9581 19.3736C34.9581 19.2194 34.9251 19.0694 34.8983 18.9382L34.8384 18.6257L34.7599 18.3319L34.7269 18.1444L34.6339 17.8319C34.574 17.5819 34.4811 17.3319 34.3882 17.0819C34.3283 16.8923 34.2622 16.7381 34.1714 16.5839L34.1115 16.4256L33.8327 15.8631L33.7687 15.7693C33.6427 15.4881 33.4899 15.2068 33.304 14.9547L33.2111 14.8005H32.796L32.6639 14.6109C32.5503 14.4255 32.4284 14.2672 32.2921 14.113L32.034 13.8005L32.003 13.7672L31.9081 13.6484L31.8358 13.5547L31.6809 13.4005L31.6499 13.338L31.5054 13.213L31.4124 13.1172L31.241 12.9609L31.1584 12.8838L31.0634 12.7901L31.0325 12.7567C30.9994 12.7255 30.9395 12.663 30.8776 12.6317L30.7206 12.5026L30.6587 12.4713L30.5327 12.3755L30.3799 12.2505L30.287 12.1755L30.225 12.1422L30.1011 12.0317C30.1011 11.9984 30.0681 11.9984 30.0371 11.9984L29.9772 11.938L29.9463 11.9047V11.8776L29.8843 11.8484L29.7583 11.7713L29.6675 11.7067L29.5126 11.613L29.3887 11.5192L29.3288 11.4859L29.2627 11.4588H29.0769L29.0376 11.4255L28.9034 11.3526L28.8848 11.3234L28.8229 11.2901L28.7299 11.2463H28.7051L28.6122 11.213L28.5606 11.1817L28.4677 11.1505L28.447 11.1276L28.3851 11.0942L28.2756 11.0338L28.2137 11.0026L28.0278 10.9401L27.875 10.8797L27.5921 10.8463L27.5012 10.7859C27.4702 10.7651 27.4393 10.7526 27.4062 10.7526L27.3463 10.7213C27.2865 10.6984 27.2534 10.688 27.1915 10.6588L27.1295 10.6255H27.0696L26.9437 10.5651L26.8838 10.5317L26.7908 10.5005H26.6009C26.5843 10.5005 26.5616 10.4901 26.5389 10.4859H26.353L26.2601 10.4526H26.2291L26.1362 10.4192H26.0516C25.9999 10.3901 25.9586 10.3901 25.907 10.3901L25.8863 10.3567L25.7624 10.3255C25.7005 10.2922 25.6468 10.2922 25.589 10.2922L25.4961 10.2609L25.3928 10.2276L25.2999 10.1984L25.1739 10.1651H25.0479L24.6783 10.1192H24.4924L24.2529 10.088H24.0959L23.9555 10.0713H23.8936L23.7821 10.038H23.1935L23.1729 10.0067H23.0469C22.9849 10.0067 22.9147 9.9755 22.861 9.94425C22.7991 9.91092 22.7351 9.88383 22.6938 9.81925L22.6318 9.72342C22.5719 9.663 22.5719 9.59842 22.5389 9.53592C22.51 9.47758 22.51 9.413 22.51 9.3505C22.51 9.288 22.51 9.2255 22.541 9.163C22.574 9.10258 22.6009 9.038 22.6669 9.00675C22.6979 8.94425 22.7578 8.91508 22.8197 8.88175C22.8796 8.84842 22.9457 8.81925 23.0056 8.81925H23.1316L23.1625 8.95675L23.1626 8.95675ZM24.3066 12.2361L24.383 12.2423L24.509 12.2548C24.5255 12.2548 24.5461 12.2548 24.5689 12.2611C24.6143 12.2611 24.6618 12.2694 24.7237 12.2736L24.8477 12.2903L24.8972 12.3236L24.9901 12.3548L25.0893 12.3861L25.1822 12.4194H25.2441L25.3309 12.4507L25.4754 12.4819L25.5911 12.5153L25.6448 12.5444H25.7955L26.0413 12.6028L26.1362 12.634L26.2292 12.6653L26.3221 12.6986C26.3221 12.6986 26.3531 12.6986 26.3531 12.7298L26.4481 12.7611L26.5389 12.7944L26.6319 12.8278C26.6628 12.8278 26.6938 12.8569 26.7269 12.8569C26.7413 12.8569 26.7558 12.8903 26.7785 12.8903L26.9106 12.9528H26.9705L27.1564 13.0153L27.2596 13.0757L27.3546 13.1382L27.5777 13.2319L27.7016 13.2632L27.7656 13.3278C27.8585 13.3569 27.9514 13.4194 28.0444 13.4507L28.1435 13.5132L28.2426 13.5757L28.3438 13.6361C28.4367 13.6986 28.5131 13.7319 28.5937 13.7944L28.6535 13.8236L28.7382 13.8882L28.7836 13.9194L28.9385 14.0132L29.0149 14.0757L29.1492 14.1653L29.2091 14.1965L29.271 14.2278L29.366 14.2903L29.4899 14.3861C29.5209 14.4153 29.5353 14.4153 29.5601 14.4465C29.5808 14.4778 29.5932 14.4778 29.6117 14.509L29.6799 14.5715L29.7542 14.6319L29.8162 14.6944L29.9112 14.7903L29.9711 14.8528L30.0041 14.8861L30.19 15.0715L30.223 15.1048C30.223 15.1361 30.254 15.1673 30.2829 15.1673L30.3159 15.1944L30.4088 15.2903L30.4687 15.384L30.5307 15.4465L30.6236 15.5715L30.7186 15.6673L30.9045 15.9153L30.9334 15.9757L31.0593 16.134L31.0924 16.1944L31.1234 16.259L31.1543 16.3194L31.1874 16.3819C31.2204 16.4132 31.2204 16.4444 31.2472 16.5069L31.336 16.6653L31.3691 16.6965L31.429 16.8236L31.493 16.9153C31.5219 16.9465 31.5219 16.9757 31.5529 17.009L31.6148 17.1028L31.6768 17.2298L31.7367 17.3528L31.7697 17.4486C31.8007 17.5403 31.8626 17.6048 31.8936 17.6986C31.8936 17.7298 31.9246 17.759 31.9246 17.7923L32.0175 18.0403L32.1435 18.4465C32.1435 18.4798 32.1745 18.5403 32.1745 18.5736L32.2695 18.8548L32.3603 19.2299L32.4553 19.7299C32.4842 19.8841 32.4842 20.0112 32.5152 20.1695C32.5482 20.4174 32.5771 20.6654 32.5771 20.9175L32.6081 21.355V21.6987C32.6081 21.7321 32.6081 21.7592 32.5771 21.7925L32.4863 21.8821C32.4264 21.93 32.3934 21.9758 32.3335 22.0092C32.2715 22.0404 32.2075 22.0696 32.1476 22.0925C32.0836 22.1258 31.9927 22.1258 31.9308 22.1258C31.8709 22.1258 31.8048 22.0925 31.7449 22.0633C31.7119 22.0633 31.683 22.03 31.652 22.0196C31.588 21.9904 31.526 21.9383 31.4971 21.8842C31.4352 21.8217 31.4021 21.7592 31.4021 21.6946L31.3732 21.6029V20.9508C31.3732 20.6737 31.3402 20.4174 31.3092 20.1487C31.2782 19.8674 31.2183 19.5549 31.1564 19.2736C31.0965 19.0861 31.0635 18.8986 31.0015 18.7319L30.9396 18.5423L30.8797 18.3861L30.8466 18.3236L30.7537 18.0736L30.6608 17.8861L30.5059 17.5757L30.3634 17.3257V17.2861L30.3035 17.1882L30.2416 17.109L30.1486 16.9528L30.0537 16.8257L29.8699 16.5778C29.7749 16.4507 29.684 16.3278 29.5766 16.2069C29.5477 16.1757 29.5167 16.1465 29.5167 16.1132L29.4548 16.0528L29.4197 16.0194L29.3577 15.9903L29.2958 15.934V15.6298L29.05 15.3944L28.8952 15.2528V15.2236L28.8332 15.159L28.7547 15.0986L28.7238 15.0653C28.7238 15.034 28.6907 15.034 28.6639 15.034L28.5689 15.0007L28.5379 14.9694L28.4119 14.8757L28.383 14.8423L28.35 14.8111C28.3252 14.7798 28.3025 14.7798 28.288 14.7798L28.1641 14.6861L28.1311 14.6528L28.0072 14.5923L27.9845 14.559L27.8915 14.4986L27.8296 14.4653L27.7676 14.4048L27.7078 14.3403H27.6747C27.6148 14.2798 27.5508 14.2486 27.4579 14.2153L27.367 14.1528L27.3051 14.1236L27.272 14.0903L27.1791 14.0278L27.0882 13.9965L26.9643 13.934L26.8693 13.9028L26.8384 13.8694L26.7227 13.8403V13.8153L26.5348 13.7528L26.4109 13.6903L26.349 13.659H26.225C26.1631 13.6278 26.1321 13.6278 26.0702 13.5965H25.9793L25.8864 13.5632H25.7955L25.7005 13.534L25.6406 13.5007H25.5147L25.3887 13.4694L25.3288 13.4361H24.9881L24.8456 13.4048H24.1208L24.0258 13.3715C23.9659 13.3423 23.9019 13.3111 23.8399 13.2465C23.811 13.184 23.747 13.1215 23.716 13.0611C23.685 12.9965 23.654 12.934 23.654 12.8715V12.684C23.6664 12.5882 23.6871 12.5278 23.716 12.4653C23.7325 12.434 23.747 12.4028 23.778 12.3715C23.8151 12.309 23.8709 12.2465 23.9328 12.2153C23.9638 12.184 23.9948 12.184 24.0237 12.1548C24.0877 12.1215 24.1497 12.1215 24.2116 12.1215H24.3355L24.3066 12.2361H24.3066ZM25.2441 15.63C25.2751 15.63 25.3061 15.63 25.335 15.6383C25.368 15.6383 25.399 15.6383 25.43 15.6425L25.5374 15.6529C25.7521 15.6717 25.9772 15.7029 26.1941 15.7488L26.4088 15.7967L26.4625 15.8133L26.6979 15.8738L26.8198 15.9154L26.9148 15.9488C27.0077 15.9779 27.1027 16.0425 27.1935 16.0738L27.2266 16.105L27.3505 16.1675L27.5363 16.2633L27.5962 16.2925C27.6293 16.3258 27.6602 16.3258 27.6912 16.355C27.7222 16.3883 27.7841 16.4175 27.8151 16.4488C27.9411 16.5113 28.032 16.605 28.1249 16.6675L28.3417 16.855L28.5276 17.0446L28.6535 17.1988L28.7134 17.2592L28.7754 17.3238L28.8662 17.4488L29.0542 17.73L29.209 18.0113L29.3329 18.2613L29.4279 18.48C29.5188 18.6967 29.5518 18.8863 29.6138 19.103C29.6737 19.2925 29.7067 19.5113 29.7377 19.6967L29.7687 20.0092L29.8017 20.2926V20.4155C29.8017 20.5092 29.7687 20.5717 29.7398 20.6342C29.7088 20.6947 29.6448 20.7884 29.5849 20.8217C29.5229 20.8822 29.4589 20.9155 29.368 20.9488C29.3082 20.978 29.2441 20.978 29.1822 20.978C29.1223 20.978 29.0583 20.978 28.9963 20.9488L28.7816 20.853C28.7196 20.7905 28.6577 20.7592 28.5937 20.6634C28.5627 20.603 28.5338 20.5384 28.5007 20.4467V20.1009L28.4698 19.8821L28.4388 19.6342L28.4057 19.4154L28.3727 19.2904C28.3727 19.2592 28.3438 19.1967 28.3438 19.1654C28.2818 18.9134 28.1579 18.6654 28.034 18.4154L27.9081 18.2904L27.811 18.1654L27.7181 18.0717L27.6871 18.0092L27.5322 17.8842L27.4063 17.7571L27.2844 17.6633C27.2514 17.6321 27.2225 17.6321 27.1584 17.6029L26.9726 17.4758L26.8466 17.4133L26.7867 17.3821H26.7537L26.5968 17.3175L26.4109 17.255L26.225 17.2237H26.0702L25.9793 17.1925L25.907 17.1779H25.8141L25.6902 17.1446H25.1636L25.1326 16.9883H25.0521C24.9901 16.98 24.9385 16.9571 24.8869 16.9279C24.8146 16.8842 24.7547 16.8342 24.701 16.7612C24.6639 16.7008 24.6308 16.6342 24.6081 16.5737C24.5916 16.5133 24.5833 16.4487 24.5833 16.3862C24.5833 16.3092 24.5833 16.23 24.6143 16.1508C24.6453 16.0696 24.6763 16.005 24.7382 15.9425L24.8642 15.8487C24.9241 15.8154 24.9902 15.7862 25.05 15.7862L25.1781 15.63H25.2442L25.2441 15.63Z" fill="#282828"/>
</svg>
